<svg xmlns="http://www.w3.org/2000/svg" version="1.1" xmlns:xlink="http://www.w3.org/1999/xlink" width="512" height="512" x="0" y="0" viewBox="0 0 188.859 188.859" style="enable-background:new 0 0 512 512" xml:space="preserve" class=""><g><path d="M183.13 57.97c1.143-4.908-3.213-12.272-4.944-16.015-4.326-9.352-10.163-18.018-16.613-26.024-5.693-7.065-25.885-24.591-32.806-10.766-1.65.15-3.248 1.079-3.973 3.025-7.765 20.861-20.581 43.264-36.738 63.357-12.283-12.161-25.712-22.99-36.562-36.557-3.133-3.917-8.174.481-7.522 4.378.894 5.343 1.612 10.645 1.969 16.018-5.939.655-11.885 1.057-17.622 2.894-2.878.921-4.661 5.141-1.945 7.365 10.402 8.519 26.11 26.974 41.241 28.242a194.167 194.167 0 0 1-17.417 14.745c-2.185 1.383-4.344 2.948-6.457 4.623-11.26 7.665-23.107 13.744-35.305 17.479-1.575.168-2.673 1.604-2.843 3.187-.282.43-.518.92-.668 1.511-3.604 14.196 11.377 30.279 20.439 39.228 9.955 9.83 23.981 19.272 36.961 11.089.551.11 1.135.032 1.67-.33 20.255-13.671 33.394-37.167 47.203-56.774 19.658-27.913 44.111-43.667 71.229-63.175 2.79-2.01 2.453-5.536.703-7.5zM48.309 178.722c-6.115-1.8-11.508-6.728-16.041-10.968-6.06-5.669-20.081-19.672-18.128-29.366.098.092.158.203.268.286 6.991 5.283 14.928 9.401 22.161 14.364 6.513 4.47 21.88 13.146 22.107 22.39.109 4.48-7.959 4.003-10.367 3.294zm52.921-54.052c-2.173-4.374-6.25-8.836-8.345-11.431-4.546-5.631-11.079-11.098-18.234-13.205 6.497-6.194 12.645-12.868 18.403-19.854.077.102.113.224.209.317.812.795 1.766 1.413 2.683 2.079 2.916 2.122 5.643 4.476 8.311 6.901 3.037 2.761 11.214 9.37 10.253 14.145-.25 1.241.136 2.437.856 3.321-4.801 5.725-9.504 11.668-14.136 17.727z" fill="#000000" opacity="1" data-original="#000000"></path></g></svg>